<?xml version="1.0" encoding="UTF-8" standalone="no"?>
<!-- Created with Inkscape (http://www.inkscape.org/) -->

<svg
   xmlns:dc="http://purl.org/dc/elements/1.1/"
   xmlns:cc="http://creativecommons.org/ns#"
   xmlns:rdf="http://www.w3.org/1999/02/22-rdf-syntax-ns#"
   xmlns:svg="http://www.w3.org/2000/svg"
   xmlns="http://www.w3.org/2000/svg"
   xmlns:sodipodi="http://sodipodi.sourceforge.net/DTD/sodipodi-0.dtd"
   xmlns:inkscape="http://www.inkscape.org/namespaces/inkscape"
   width="735.33356"
   height="179.25449"
   id="svg3013"
   version="1.1"
   inkscape:version="0.48.4 r9939"
   sodipodi:docname="rarog-it-logo.svgz">
  <defs
     id="defs3015" />
  <sodipodi:namedview
     id="base"
     pagecolor="#ffffff"
     bordercolor="#666666"
     borderopacity="1.0"
     inkscape:pageopacity="0.0"
     inkscape:pageshadow="2"
     inkscape:zoom="0.98994949"
     inkscape:cx="445.05319"
     inkscape:cy="-115.07409"
     inkscape:document-units="px"
     inkscape:current-layer="layer1"
     showgrid="false"
     inkscape:window-width="1920"
     inkscape:window-height="1028"
     inkscape:window-x="-8"
     inkscape:window-y="-8"
     inkscape:window-maximized="1"
     fit-margin-top="0"
     fit-margin-left="0"
     fit-margin-right="0"
     fit-margin-bottom="0" />
  <metadata
     id="metadata3018">
    <rdf:RDF>
      <cc:Work
         rdf:about="">
        <dc:format>image/svg+xml</dc:format>
        <dc:type
           rdf:resource="http://purl.org/dc/dcmitype/StillImage" />
        <dc:title></dc:title>
      </cc:Work>
    </rdf:RDF>
  </metadata>
  <g
     inkscape:label="Ebene 1"
     inkscape:groupmode="layer"
     id="layer1"
     transform="translate(-5.2771859,-6.7042236)">
    <text
       xml:space="preserve"
       style="font-size:40px;font-style:normal;font-variant:normal;font-weight:bold;font-stretch:normal;line-height:125%;letter-spacing:0px;word-spacing:0px;fill:#000000;fill-opacity:1;stroke:none;font-family:COUTURE;-inkscape-font-specification:COUTURE Bold"
       x="-7.142858"
       y="142.36218"
       id="text3021"
       sodipodi:linespacing="125%"><tspan
         sodipodi:role="line"
         id="tspan3023"
         x="-7.142858"
         y="142.36218"
         style="font-size:144px"><tspan
   style="font-size:180px"
   id="tspan3025">R</tspan>AROG<tspan
   style="font-size:190px"
   id="tspan3033">IT</tspan></tspan></text>
    <text
       xml:space="preserve"
       style="font-size:40px;font-style:normal;font-variant:normal;font-weight:bold;font-stretch:normal;line-height:125%;letter-spacing:0px;word-spacing:0px;fill:#000000;fill-opacity:1;stroke:none;font-family:COUTURE;-inkscape-font-specification:COUTURE Bold"
       x="420.34943"
       y="177.54074"
       id="text3035"
       sodipodi:linespacing="125%"><tspan
         sodipodi:role="line"
         id="tspan3037"
         x="420.34943"
         y="177.54074"
         style="font-style:normal;font-variant:normal;font-weight:bold;font-stretch:normal;font-family:Arial;-inkscape-font-specification:Arial Bold">Andrej Sinicyn</tspan></text>
    <g
       transform="matrix(0.2,0,0,0.2,329.49147,-17.404042)"
       id="g3129">
      <path
         style="fill:#ffffff;fill-opacity:0"
         d="m 166.42857,532.36218 0,-175 175,0 175,0 0,175 0,175 -175,0 -175,0 0,-175 z"
         id="path3145"
         inkscape:connector-curvature="0" />
      <path
         style="fill:#fdca00"
         d="m 322.92857,689.77503 c -9.91236,-1.33955 -23.5,-5.01815 -23.5,-6.36219 0,-0.3842 3.40279,-1.76571 7.56177,-3.07003 4.15897,-1.30432 7.72074,-2.62872 7.91504,-2.94311 0.19431,-0.31439 -5.49106,0.2615 -12.63416,1.27976 l -12.98744,1.85139 -9.17761,-4.55745 c -8.44576,-4.19403 -32.28644,-20.99874 -35.71225,-25.17269 -1.32991,-1.62034 -1.28049,-1.72833 0.53465,-1.16836 1.1,0.33934 7.03941,2.68678 13.19869,5.21651 10.82598,4.44644 19.34581,6.72521 29.80131,7.97085 l 5,0.59568 -6.22087,-2.39016 c -8.53516,-3.27937 -24.30628,-13.70376 -20.65158,-13.65028 0.47985,0.007 4.28814,1.10377 8.46288,2.43722 17.98973,5.74612 33.39057,6.93823 40.71338,3.15147 3.49017,-1.80485 4.19619,-3.32061 4.19619,-9.00893 0,-3.15641 -0.59959,-4.80718 -2.33987,-6.4421 -5.11762,-4.80775 -11.5533,-4.72645 -31.84135,0.40222 -16.61285,4.19962 -39.17415,2.84813 -50.79983,-3.04305 -5.72419,-2.90066 -11.49888,-9.0973 -18.42044,-19.7664 -5.59583,-8.62559 -10.01272,-16.7432 -9.11017,-16.7432 0.29094,0 2.3729,1.33573 4.62659,2.9683 7.68661,5.56815 18.63573,8.98366 32.17445,10.03664 16.50149,1.2834 16.53174,1.27328 5.71062,-1.90974 -13.21599,-3.88746 -20.65902,-7.0524 -29.40537,-12.50376 -12.43374,-7.7496 -20.04123,-18.81496 -23.24472,-33.81021 -1.76422,-8.25819 -1.39103,-33.49059 0.72518,-49.03123 1.21254,-8.90444 2.91525,-11.80337 2.93678,-5 0.007,2.0625 0.63027,6.07259 1.38609,8.91132 3.72055,13.97365 11.44534,24.03458 23.94222,31.18287 8.59255,4.91499 12.45234,5.1732 5.46469,0.36557 -16.85308,-11.59523 -26.8873,-32.72776 -25.46704,-53.63481 1.28312,-18.88838 6.7786,-30.97735 23.89988,-52.57495 6.18095,-7.79695 14.86312,-17.23296 15.37996,-16.71533 0.11826,0.11843 -2.22283,5.16533 -5.20242,11.21533 -5.9933,12.16929 -8.41525,20.26632 -8.41525,28.13381 0,5.38043 1.89972,15.36907 2.92175,15.36244 0.31804,-0.002 1.41315,-2.0339 2.43359,-4.51519 2.567,-6.24192 11.68712,-20.56439 16.85187,-26.46462 2.36103,-2.69725 6.82107,-6.86634 9.91118,-9.26464 19.64579,-15.24749 48.87282,-16.37546 71.88161,-2.77417 6.96648,4.11813 14.82388,10.4881 13.99414,11.34501 -0.27823,0.28733 -3.42823,-0.21081 -7,-1.10698 -4.72188,-1.18473 -11.13346,-1.63198 -23.49414,-1.63886 -19.16982,-0.0107 -23.88116,1.09763 -34.5,8.11576 -18.5754,12.27671 -29,31.45302 -29,53.34619 0,10.97063 4.3386,23.95427 10.53898,31.53882 2.27707,2.7854 2.39078,2.81749 2.42506,0.68439 0.0198,-1.23093 1.40333,-6.5067 3.07456,-11.72394 6.20103,-19.35834 20.09649,-34.36759 40.31342,-43.54477 l 6.13518,-2.78497 -4.4936,-1.21539 c -5.80092,-1.56898 -13.52224,-0.74098 -24.02261,2.57609 -4.5806,1.44701 -8.92296,2.85909 -9.64968,3.13796 -3.19054,1.22433 -0.84994,-1.95245 4.42869,-6.01084 12.65994,-9.73338 25.05507,-14.03829 40.25,-13.97907 20.66784,0.0806 36.30353,7.94529 46.60635,23.44294 5.02234,7.55468 9.74755,18.6725 10.87609,25.59003 0.77865,4.77285 0.4416,5.01813 -3.32807,2.42189 -10.50637,-7.2359 -28.39306,-14.38352 -39.27108,-15.69293 -13.16023,-1.58413 -22.97967,3.40278 -28.67989,14.56539 -4.63412,9.0749 -5.23521,16.02213 -1.99804,23.09303 3.94094,8.60815 10.64126,14.24203 26.31149,22.12367 l 7.01684,3.52927 6.81251,-5.80177 c 3.74688,-3.19097 14.13558,-10.77462 23.086,-16.85256 18.1578,-12.33036 25.70217,-19.59322 30.5013,-29.36318 4.66709,-9.50117 6.36213,-19.13002 5.76923,-32.77281 -0.82227,-18.92052 -5.25231,-28.33813 -20.70273,-44.01096 -20.94858,-21.25013 -37.91973,-30.0003 -64.10826,-33.05363 -10.3511,-1.20685 -38.57148,-0.81089 -42.14174,0.59128 -0.9625,0.37801 -1.75,0.24254 -1.75,-0.30103 0,-1.67695 16.81333,-8.3159 28.59711,-11.29194 34.60996,-8.74085 73.71058,-5.29443 102.90289,9.07012 23.33902,11.48433 27.93525,18.7351 29.15679,45.99616 0.4919,10.97791 0.23848,14.06883 -2.08122,25.38379 -1.45272,7.08609 -2.47213,13.05298 -2.26535,13.25977 0.20679,0.20678 2.03337,-2.97754 4.05908,-7.07629 5.37566,-10.87691 7.53325,-20.57885 8.29252,-37.28863 l 0.65277,-14.36606 3.43486,3.29371 c 4.99114,4.78604 15.25502,17.3129 20.16917,24.61607 9.51856,14.14602 14.02127,29.03833 14.05974,46.50132 0.0433,19.65438 -8.14288,34.65752 -25.97836,47.61159 -5.38661,3.91235 -2.45486,3.39455 6,-1.05971 6.92132,-3.64635 14.18333,-9.82512 17.88215,-15.21476 3.65513,-5.32598 7.71719,-16.60583 8.64009,-23.99252 0.3958,-3.16786 0.92779,-5.55159 1.1822,-5.29718 1.31064,1.31064 3.44416,24.09468 3.57043,38.1289 0.11003,12.2286 -0.25316,17.46959 -1.54083,22.23465 -6.33304,23.4357 -21.10601,35.01146 -58.23404,45.63086 -3.53511,1.01112 19.26236,-0.30378 24.11265,-1.39076 5.97732,-1.33954 19.16155,-7.414 22.11617,-10.18972 8.04114,-7.55426 -8.35197,19.92433 -17.17874,28.79547 -7.57668,7.61478 -13.93588,9.98659 -31.14948,11.61791 -12.90871,1.22335 -13.16337,1.19408 -36.4006,-4.18368 -15.47871,-3.58221 -23.00021,-2.08375 -25.12415,5.0053 -1.35646,4.52747 -0.60463,8.2231 2.20551,10.84114 5.50097,5.12493 23.51902,4.15081 43.30189,-2.34106 4.33579,-1.42281 8.06904,-2.40115 8.29612,-2.17408 1.15698,1.15698 -12.13833,9.79636 -20.5715,13.36749 l -5.60787,2.37473 6.5,-0.66774 c 9.25889,-0.95116 15.65007,-2.78951 29.33657,-8.43833 6.6102,-2.72822 12.19693,-4.78201 12.41497,-4.56397 0.7366,0.7366 -15.19423,13.82259 -23.25154,19.09939 -4.4,2.8816 -10.79756,6.64292 -14.2168,8.35848 l -6.21681,3.1192 -11.78319,-1.54303 c -6.48076,-0.84866 -12.7957,-1.79638 -14.0332,-2.10604 -4.84416,-1.21217 -1.84557,0.60051 6.21041,3.75425 4.65322,1.82163 8.23451,3.53796 7.95841,3.81405 -1.63619,1.63619 -21.58457,6.23011 -30.818,7.09709 -5.99454,0.56286 -10.96275,0.90301 -11.04045,0.75589 -0.0777,-0.14712 -1.41389,-1.99488 -2.96932,-4.10614 l -2.82806,-3.83864 -2.43817,4.08864 c -2.32435,3.89777 -2.65728,4.08315 -7.1315,3.97077 -2.58133,-0.0648 -9.19332,-0.72601 -14.69332,-1.46927 z m 27.5,-202.35615 c 0,-2.87621 -3.84746,-5.0567 -8.92251,-5.0567 -5.10225,0 -4.75681,0.62727 2.41455,4.38454 5.97525,3.13058 6.50796,3.18561 6.50796,0.67216 z"
         id="path3143"
         inkscape:connector-curvature="0" />
      <path
         style="fill:#f8b102"
         d="m 250.11548,655.73198 c -3.7472,-3.06733 -6.57576,-5.81429 -6.28569,-6.10435 0.60771,-0.60772 15.60572,5.80646 15.58512,6.66527 -0.039,1.62709 -1.30261,5.06579 -1.85297,5.04266 -0.34835,-0.0147 -3.69926,-2.53626 -7.44646,-5.60358 z m -4.09261,-17.01338 c -13.45306,-2.88423 -19.77815,-7.86346 -29.99579,-23.61322 -5.59583,-8.62559 -10.01272,-16.7432 -9.11017,-16.7432 0.29094,0 2.3729,1.33573 4.62659,2.9683 7.68661,5.56815 18.63573,8.98366 32.17445,10.03664 16.50149,1.2834 16.53174,1.27328 5.71062,-1.90974 -13.21599,-3.88746 -20.65902,-7.0524 -29.40537,-12.50376 -12.43374,-7.7496 -20.04123,-18.81496 -23.24472,-33.81021 -1.76422,-8.25819 -1.39103,-33.49059 0.72518,-49.03123 1.21254,-8.90444 2.91525,-11.80337 2.93678,-5 0.007,2.0625 0.63027,6.07259 1.38609,8.91132 3.72055,13.97365 11.44534,24.03458 23.94222,31.18287 8.59255,4.91499 12.45234,5.1732 5.46469,0.36557 -16.85308,-11.59523 -26.8873,-32.72776 -25.46704,-53.63481 1.28312,-18.88838 6.7786,-30.97735 23.89988,-52.57495 6.18095,-7.79695 14.86312,-17.23296 15.37996,-16.71533 0.11826,0.11843 -2.22283,5.16533 -5.20242,11.21533 -5.9933,12.16929 -8.41525,20.26632 -8.41525,28.13381 0,5.38043 1.89972,15.36907 2.92175,15.36244 0.31804,-0.002 1.41315,-2.0339 2.43359,-4.51519 2.567,-6.24192 11.68712,-20.56439 16.85187,-26.46462 2.36103,-2.69725 6.82107,-6.86634 9.91118,-9.26464 19.64579,-15.24749 48.87282,-16.37546 71.88161,-2.77417 6.96648,4.11813 14.82388,10.4881 13.99414,11.34501 -0.27823,0.28733 -3.42823,-0.21081 -7,-1.10698 -4.72188,-1.18473 -11.13346,-1.63198 -23.49414,-1.63886 -19.16982,-0.0107 -23.88116,1.09763 -34.5,8.11576 -18.5754,12.27671 -29,31.45302 -29,53.34619 0,10.97063 4.3386,23.95427 10.53898,31.53882 2.27707,2.7854 2.39078,2.81749 2.42506,0.68439 0.0198,-1.23093 1.40333,-6.5067 3.07456,-11.72394 6.20103,-19.35834 20.09649,-34.36759 40.31342,-43.54477 l 6.13518,-2.78497 -4.4936,-1.21539 c -5.80092,-1.56898 -13.52224,-0.74098 -24.02261,2.57609 -4.5806,1.44701 -8.92296,2.85909 -9.64968,3.13796 -3.19054,1.22433 -0.84994,-1.95245 4.42869,-6.01084 12.65994,-9.73338 25.05507,-14.03829 40.25,-13.97907 11.08527,0.0432 19.94905,2.09588 28.36828,6.56953 6.24946,3.32072 15.9821,12.309 18.89076,17.44598 l 1.75903,3.10664 -8.42358,6.50215 -8.42358,6.50214 -5.84805,-1.82012 c -19.62257,-6.10723 -32.91614,-2.12248 -40.10342,12.021 -5.6808,11.17895 -5.29034,20.04929 1.27421,28.94704 l 2.45835,3.33211 -3.51266,4.58825 c -16.23843,21.21073 -32.68981,50.20225 -41.89986,73.83825 l -4.77336,12.25 -5.63306,-0.0815 c -3.09818,-0.0448 -8.74062,-0.74776 -12.53876,-1.56205 z m 104.4057,-151.29972 c 0,-2.87621 -3.84746,-5.0567 -8.92251,-5.0567 -5.10225,0 -4.75681,0.62727 2.41455,4.38454 5.97525,3.13058 6.50796,3.18561 6.50796,0.67216 z m 56.56713,-18.36226 c -1.57545,-9.85231 -10.3411,-23.52808 -22.30737,-34.80291 -20.1741,-19.00842 -36.71269,-27.08154 -61.36802,-29.95612 -10.3511,-1.20685 -38.57148,-0.81089 -42.14174,0.59128 -0.9625,0.37801 -1.75,0.24254 -1.75,-0.30103 0,-1.67695 16.81333,-8.3159 28.59711,-11.29194 34.60996,-8.74085 73.71058,-5.29443 102.90289,9.07012 12.68273,6.24074 20.8035,12.31687 23.3965,17.50576 3.26545,6.53454 5.12855,15.29162 5.7423,26.9904 l 0.57708,11 -8.35794,3.44278 c -4.59687,1.89353 -12.02958,5.27691 -16.51713,7.51863 l -8.15919,4.07584 -0.61449,-3.84281 z m 40.80025,-19.93524 c 0.34794,-3.32892 0.64759,-9.47407 0.66588,-13.65589 l 0.0333,-7.60331 6.24138,6.52125 c 6.67654,6.97593 12.2185,13.838 11.58156,14.34033 -0.2142,0.16892 -4.61163,1.68933 -9.77207,3.37867 l -9.38262,3.07154 0.63262,-6.05259 z"
         id="path3141"
         inkscape:connector-curvature="0" />
      <path
         style="fill:#f08e08"
         d="m 250.11548,655.73198 c -3.7472,-3.06733 -6.57576,-5.81429 -6.28569,-6.10435 0.29007,-0.29007 3.93295,0.96923 8.0953,2.79845 5.25817,2.3108 7.40547,3.74913 7.03569,4.71276 -0.29272,0.7628 -0.53221,2.02511 -0.53221,2.80513 0,2.25615 -1.07939,1.70926 -8.31309,-4.21199 z m -4.09261,-17.01338 c -13.45306,-2.88423 -19.77815,-7.86346 -29.99579,-23.61322 -5.59583,-8.62559 -10.01272,-16.7432 -9.11017,-16.7432 0.29094,0 2.3729,1.33573 4.62659,2.9683 7.68661,5.56815 18.63573,8.98366 32.17445,10.03664 16.50149,1.2834 16.53174,1.27328 5.71062,-1.90974 -13.21599,-3.88746 -20.65902,-7.0524 -29.40537,-12.50376 -12.43374,-7.7496 -20.04123,-18.81496 -23.24472,-33.81021 -1.76422,-8.25819 -1.39103,-33.49059 0.72518,-49.03123 1.21254,-8.90444 2.91525,-11.80337 2.93678,-5 0.007,2.0625 0.63027,6.07259 1.38609,8.91132 3.72055,13.97365 11.44534,24.03458 23.94222,31.18287 8.59255,4.91499 12.45234,5.1732 5.46469,0.36557 -16.85308,-11.59523 -26.8873,-32.72776 -25.46704,-53.63481 1.28312,-18.88838 6.7786,-30.97735 23.89988,-52.57495 6.18095,-7.79695 14.86312,-17.23296 15.37996,-16.71533 0.11826,0.11843 -2.22283,5.16533 -5.20242,11.21533 -5.9933,12.16929 -8.41525,20.26632 -8.41525,28.13381 0,5.38043 1.89972,15.36907 2.92175,15.36244 0.31804,-0.002 1.41315,-2.0339 2.43359,-4.51519 2.567,-6.24192 11.68712,-20.56439 16.85187,-26.46462 2.36103,-2.69725 6.82107,-6.86634 9.91118,-9.26464 19.64579,-15.24749 48.87282,-16.37546 71.88161,-2.77417 6.96648,4.11813 14.82388,10.4881 13.99414,11.34501 -0.27823,0.28733 -3.42823,-0.21081 -7,-1.10698 -4.72188,-1.18473 -11.13346,-1.63198 -23.49414,-1.63886 -19.16982,-0.0107 -23.88116,1.09763 -34.5,8.11576 -18.5754,12.27671 -29,31.45302 -29,53.34619 0,10.97063 4.3386,23.95427 10.53898,31.53882 2.27707,2.7854 2.39078,2.81749 2.42506,0.68439 0.0198,-1.23093 1.40333,-6.5067 3.07456,-11.72394 6.20103,-19.35834 20.09649,-34.36759 40.31342,-43.54477 l 6.13518,-2.78497 -4.4936,-1.21539 c -5.80092,-1.56898 -13.52224,-0.74098 -24.02261,2.57609 -4.5806,1.44701 -8.92296,2.85909 -9.64968,3.13796 -3.19054,1.22433 -0.84994,-1.95245 4.42869,-6.01084 12.65994,-9.73338 25.05507,-14.03829 40.25,-13.97907 19.5219,0.0761 35.29671,7.48787 45.14176,21.20982 l 3.99855,5.57315 -3.28501,2.5 c -1.80675,1.375 -5.61681,4.37979 -8.46678,6.67731 l -5.18178,4.17731 -5.86596,-1.82569 c -19.64159,-6.11315 -32.93149,-2.13313 -40.12134,12.01542 -5.66569,11.1492 -5.28794,20.05255 1.22533,28.8808 l 2.40949,3.26587 -7.02157,9.46546 c -15.55776,20.97274 -29.99585,47.03649 -38.82851,70.09352 l -4.30964,11.25 -5.59727,-0.0815 c -3.0785,-0.0448 -8.70483,-0.74776 -12.50297,-1.56205 z m 104.4057,-151.29972 c 0,-2.87621 -3.84746,-5.0567 -8.92251,-5.0567 -5.10225,0 -4.75681,0.62727 2.41455,4.38454 5.97525,3.13058 6.50796,3.18561 6.50796,0.67216 z m 56.52697,-18.76462 c -1.87669,-10.00361 -10.47931,-23.29377 -22.26721,-34.40055 -20.1741,-19.00842 -36.71269,-27.08154 -61.36802,-29.95612 -10.3511,-1.20685 -38.57148,-0.81089 -42.14174,0.59128 -0.9625,0.37801 -1.75,0.24254 -1.75,-0.30103 0,-1.67695 16.81333,-8.3159 28.59711,-11.29194 34.60996,-8.74085 73.71058,-5.29443 102.90289,9.07012 22.95643,11.29608 27.73729,18.58883 29.17004,44.49616 l 0.60833,11 -3.88919,1.36506 c -2.13905,0.75079 -9.46626,4.01329 -16.28268,7.25 -6.81643,3.23672 -12.50385,5.88494 -12.63871,5.88494 -0.13486,0 -0.55823,-1.66856 -0.94082,-3.70792 z m 40.80634,-19.38413 c 0.35712,-2.97437 0.65322,-8.97389 0.658,-13.33226 l 0.009,-7.92432 2.63757,2.42432 c 3.34566,3.07515 15.36553,17.03178 15.35307,17.82691 -0.008,0.49342 -9.47303,3.69554 -17.39864,5.88597 -1.76119,0.48676 -1.85804,0.11124 -1.25869,-4.88062 z"
         id="path3139"
         inkscape:connector-curvature="0" />
      <path
         style="fill:#eb780c"
         d="m 250.11548,655.73198 c -3.7472,-3.06733 -6.57576,-5.81429 -6.28569,-6.10435 0.29007,-0.29007 3.93295,0.96923 8.0953,2.79845 5.25817,2.3108 7.40547,3.74913 7.03569,4.71276 -0.29272,0.7628 -0.53221,2.02511 -0.53221,2.80513 0,2.25615 -1.07939,1.70926 -8.31309,-4.21199 z m -4.09261,-17.01338 c -13.45306,-2.88423 -19.77815,-7.86346 -29.99579,-23.61322 -5.59583,-8.62559 -10.01272,-16.7432 -9.11017,-16.7432 0.29094,0 2.3729,1.33573 4.62659,2.9683 7.68661,5.56815 18.63573,8.98366 32.17445,10.03664 16.50149,1.2834 16.53174,1.27328 5.71062,-1.90974 -13.21599,-3.88746 -20.65902,-7.0524 -29.40537,-12.50376 -12.43374,-7.7496 -20.04123,-18.81496 -23.24472,-33.81021 -1.76422,-8.25819 -1.39103,-33.49059 0.72518,-49.03123 1.21254,-8.90444 2.91525,-11.80337 2.93678,-5 0.007,2.0625 0.63027,6.07259 1.38609,8.91132 3.72055,13.97365 11.44534,24.03458 23.94222,31.18287 8.59255,4.91499 12.45234,5.1732 5.46469,0.36557 -16.85308,-11.59523 -26.8873,-32.72776 -25.46704,-53.63481 1.28312,-18.88838 6.7786,-30.97735 23.89988,-52.57495 6.18095,-7.79695 14.86312,-17.23296 15.37996,-16.71533 0.11826,0.11843 -2.22283,5.16533 -5.20242,11.21533 -5.9933,12.16929 -8.41525,20.26632 -8.41525,28.13381 0,5.38043 1.89972,15.36907 2.92175,15.36244 0.31804,-0.002 1.41315,-2.0339 2.43359,-4.51519 2.567,-6.24192 11.68712,-20.56439 16.85187,-26.46462 2.36103,-2.69725 6.82107,-6.86634 9.91118,-9.26464 19.64579,-15.24749 48.87282,-16.37546 71.88161,-2.77417 6.96648,4.11813 14.82388,10.4881 13.99414,11.34501 -0.27823,0.28733 -3.42823,-0.21081 -7,-1.10698 -4.72188,-1.18473 -11.13346,-1.63198 -23.49414,-1.63886 -19.16982,-0.0107 -23.88116,1.09763 -34.5,8.11576 -18.5754,12.27671 -29,31.45302 -29,53.34619 0,10.97063 4.3386,23.95427 10.53898,31.53882 2.27707,2.7854 2.39078,2.81749 2.42506,0.68439 0.0198,-1.23093 1.40333,-6.5067 3.07456,-11.72394 6.20103,-19.35834 20.09649,-34.36759 40.31342,-43.54477 l 6.13518,-2.78497 -4.4936,-1.21539 c -5.80092,-1.56898 -13.52224,-0.74098 -24.02261,2.57609 -4.5806,1.44701 -8.92296,2.85909 -9.64968,3.13796 -3.19054,1.22433 -0.84994,-1.95245 4.42869,-6.01084 12.65994,-9.73338 25.05507,-14.03829 40.25,-13.97907 11.08527,0.0432 19.94905,2.09588 28.36828,6.56953 6.18886,3.28852 15.97917,12.30008 18.81585,17.31918 l 1.68413,2.97982 -8.59968,6.55083 -8.59968,6.55084 -5.59705,-1.742 c -19.35639,-6.02439 -32.70148,-1.97285 -39.85241,12.09912 -5.67805,11.17352 -5.2899,20.04989 1.26526,28.93491 l 2.4494,3.31997 -4.83849,6.10039 c -6.4457,8.12676 -18.63321,26.85194 -25.12353,38.60038 -5.73607,10.38313 -15.70257,32.43368 -18.41836,40.75 l -1.71445,5.25 -5.66964,-0.0815 c -3.11829,-0.0448 -8.77719,-0.74776 -12.57533,-1.56205 z m 104.4057,-151.29972 c 0,-2.87621 -3.84746,-5.0567 -8.92251,-5.0567 -5.10225,0 -4.75681,0.62727 2.41455,4.38454 5.97525,3.13058 6.50796,3.18561 6.50796,0.67216 z m 56.52697,-18.76462 c -1.87669,-10.00361 -10.47931,-23.29377 -22.26721,-34.40055 -20.1741,-19.00842 -36.71269,-27.08154 -61.36802,-29.95612 -10.3511,-1.20685 -38.57148,-0.81089 -42.14174,0.59128 -0.9625,0.37801 -1.75,0.24254 -1.75,-0.30103 0,-1.67695 16.81333,-8.3159 28.59711,-11.29194 34.60996,-8.74085 73.71058,-5.29443 102.90289,9.07012 22.88655,11.26169 27.67363,18.51992 29.17682,44.23827 l 0.62785,10.74211 -5.40233,2.22475 c -2.97129,1.22361 -10.26622,4.60216 -16.21097,7.50789 -5.94474,2.90573 -10.95716,5.28314 -11.1387,5.28314 -0.18155,0 -0.64311,-1.66856 -1.0257,-3.70792 z m 40.82505,-19.54208 c 0.34683,-2.8875 0.63451,-8.81594 0.63929,-13.17431 l 0.009,-7.92432 2.63757,2.42432 c 5.21084,4.78952 15.39023,17.29499 14.63425,17.97831 -0.84663,0.76498 -16.23852,5.946 -17.66483,5.946 -0.48724,0 -0.60211,-2.3625 -0.25528,-5.25 z"
         id="path3137"
         inkscape:connector-curvature="0" />
      <path
         style="fill:#e86b0e"
         d="m 250.11548,655.69723 c -3.7472,-3.04821 -6.57576,-5.77954 -6.28569,-6.0696 0.29007,-0.29007 3.92242,0.9646 8.07189,2.78816 6.55145,2.87915 7.46273,3.58742 6.9233,5.38098 -0.34166,1.13597 -0.90812,2.37529 -1.2588,2.75404 -0.35069,0.37874 -3.7035,-1.80537 -7.4507,-4.85358 z m -4.09261,-16.97863 c -13.45306,-2.88423 -19.77815,-7.86346 -29.99579,-23.61322 -5.59583,-8.62559 -10.01272,-16.7432 -9.11017,-16.7432 0.29094,0 2.3729,1.33573 4.62659,2.9683 7.68661,5.56815 18.63573,8.98366 32.17445,10.03664 16.50149,1.2834 16.53174,1.27328 5.71062,-1.90974 -13.21599,-3.88746 -20.65902,-7.0524 -29.40537,-12.50376 -12.43374,-7.7496 -20.04123,-18.81496 -23.24472,-33.81021 -1.76422,-8.25819 -1.39103,-33.49059 0.72518,-49.03123 1.21254,-8.90444 2.91525,-11.80337 2.93678,-5 0.007,2.0625 0.63027,6.07259 1.38609,8.91132 3.72055,13.97365 11.44534,24.03458 23.94222,31.18287 8.59255,4.91499 12.45234,5.1732 5.46469,0.36557 -16.85308,-11.59523 -26.8873,-32.72776 -25.46704,-53.63481 1.28312,-18.88838 6.7786,-30.97735 23.89988,-52.57495 6.18095,-7.79695 14.86312,-17.23296 15.37996,-16.71533 0.11826,0.11843 -2.22283,5.16533 -5.20242,11.21533 -5.9933,12.16929 -8.41525,20.26632 -8.41525,28.13381 0,5.38043 1.89972,15.36907 2.92175,15.36244 0.31804,-0.002 1.41315,-2.0339 2.43359,-4.51519 2.567,-6.24192 11.68712,-20.56439 16.85187,-26.46462 2.36103,-2.69725 6.82107,-6.86634 9.91118,-9.26464 19.64579,-15.24749 48.87282,-16.37546 71.88161,-2.77417 6.96648,4.11813 14.82388,10.4881 13.99414,11.34501 -0.27823,0.28733 -3.42823,-0.21081 -7,-1.10698 -4.72188,-1.18473 -11.13346,-1.63198 -23.49414,-1.63886 -19.16982,-0.0107 -23.88116,1.09763 -34.5,8.11576 -18.5754,12.27671 -29,31.45302 -29,53.34619 0,10.97063 4.3386,23.95427 10.53898,31.53882 2.27707,2.7854 2.39078,2.81749 2.42506,0.68439 0.0198,-1.23093 1.40333,-6.5067 3.07456,-11.72394 6.20103,-19.35834 20.09649,-34.36759 40.31342,-43.54477 l 6.13518,-2.78497 -4.4936,-1.21539 c -5.80092,-1.56898 -13.52224,-0.74098 -24.02261,2.57609 -4.5806,1.44701 -8.92296,2.85909 -9.64968,3.13796 -3.19054,1.22433 -0.84994,-1.95245 4.42869,-6.01084 12.65994,-9.73338 25.05507,-14.03829 40.25,-13.97907 11.08527,0.0432 19.94905,2.09588 28.36828,6.56953 6.18886,3.28852 15.97917,12.30008 18.81585,17.31918 l 1.68413,2.97982 -8.59968,6.55083 -8.59968,6.55084 -5.59705,-1.742 c -19.35639,-6.02439 -32.70148,-1.97285 -39.85241,12.09912 -5.65282,11.12388 -5.28593,20.05527 1.18408,28.82488 l 2.36823,3.20995 -7.94218,10.64934 c -15.19617,20.37592 -29.20133,45.71983 -37.86509,68.52113 l -4.46448,11.74965 -5.5,-0.0812 c -3.025,-0.0446 -8.60756,-0.74741 -12.4057,-1.5617 z m 104.4057,-151.29972 c 0,-2.87621 -3.84746,-5.0567 -8.92251,-5.0567 -5.10225,0 -4.75681,0.62727 2.41455,4.38454 5.97525,3.13058 6.50796,3.18561 6.50796,0.67216 z m 56.52697,-18.76462 c -1.87669,-10.00361 -10.47931,-23.29377 -22.26721,-34.40055 -20.1741,-19.00842 -36.71269,-27.08154 -61.36802,-29.95612 -10.3511,-1.20685 -38.57148,-0.81089 -42.14174,0.59128 -0.9625,0.37801 -1.75,0.24254 -1.75,-0.30103 0,-1.67695 16.81333,-8.3159 28.59711,-11.29194 34.60996,-8.74085 73.71058,-5.29443 102.90289,9.07012 12.72105,6.25959 20.80206,12.31399 23.415,17.54281 3.39128,6.78636 5.29293,16.26893 5.44294,27.14105 l 0.14206,10.29644 -14.45724,6.51517 c -7.95149,3.58335 -14.90399,6.96192 -15.45,7.50793 -1.69695,1.69695 -2.34589,1.12223 -3.06579,-2.71516 z m 40.82505,-19.54208 c 0.34683,-2.8875 0.63451,-8.81594 0.63929,-13.17431 l 0.009,-7.92432 2.63757,2.42432 c 4.31484,3.96596 15.41562,17.20445 14.87754,17.74254 -0.44324,0.44323 -17.43602,6.13974 -18.4044,6.16972 -0.21411,0.007 -0.10552,-2.35045 0.24131,-5.23795 z"
         id="path3135"
         inkscape:connector-curvature="0" />
      <path
         style="fill:#e35512"
         d="m 250.09822,655.67378 c -3.7377,-3.03532 -6.5585,-5.75609 -6.26843,-6.04615 0.29007,-0.29007 3.84655,0.93126 7.90329,2.71407 6.62124,2.90982 7.32888,3.48746 6.91629,5.64575 -0.25278,1.32236 -0.75114,2.58446 -1.10746,2.80468 -0.35632,0.22022 -3.70598,-2.08304 -7.44369,-5.11835 z m -4.07535,-16.95518 c -13.45306,-2.88423 -19.77815,-7.86346 -29.99579,-23.61322 -5.59583,-8.62559 -10.01272,-16.7432 -9.11017,-16.7432 0.29094,0 2.3729,1.33573 4.62659,2.9683 7.68661,5.56815 18.63573,8.98366 32.17445,10.03664 16.50149,1.2834 16.53174,1.27328 5.71062,-1.90974 -13.21599,-3.88746 -20.65902,-7.0524 -29.40537,-12.50376 -12.43374,-7.7496 -20.04123,-18.81496 -23.24472,-33.81021 -1.76422,-8.25819 -1.39103,-33.49059 0.72518,-49.03123 1.21254,-8.90444 2.91525,-11.80337 2.93678,-5 0.007,2.0625 0.63027,6.07259 1.38609,8.91132 3.72055,13.97365 11.44534,24.03458 23.94222,31.18287 8.59255,4.91499 12.45234,5.1732 5.46469,0.36557 -16.85308,-11.59523 -26.8873,-32.72776 -25.46704,-53.63481 1.28312,-18.88838 6.7786,-30.97735 23.89988,-52.57495 6.18095,-7.79695 14.86312,-17.23296 15.37996,-16.71533 0.11826,0.11843 -2.22283,5.16533 -5.20242,11.21533 -5.9933,12.16929 -8.41525,20.26632 -8.41525,28.13381 0,5.38043 1.89972,15.36907 2.92175,15.36244 0.31804,-0.002 1.41315,-2.0339 2.43359,-4.51519 2.567,-6.24192 11.68712,-20.56439 16.85187,-26.46462 2.36103,-2.69725 6.82107,-6.86634 9.91118,-9.26464 19.64579,-15.24749 48.87282,-16.37546 71.88161,-2.77417 6.96648,4.11813 14.82388,10.4881 13.99414,11.34501 -0.27823,0.28733 -3.42823,-0.21081 -7,-1.10698 -4.72188,-1.18473 -11.13346,-1.63198 -23.49414,-1.63886 -19.16982,-0.0107 -23.88116,1.09763 -34.5,8.11576 -18.5754,12.27671 -29,31.45302 -29,53.34619 0,10.97063 4.3386,23.95427 10.53898,31.53882 2.27707,2.7854 2.39078,2.81749 2.42506,0.68439 0.0198,-1.23093 1.40333,-6.5067 3.07456,-11.72394 6.20103,-19.35834 20.09649,-34.36759 40.31342,-43.54477 l 6.13518,-2.78497 -4.4936,-1.21539 c -5.80092,-1.56898 -13.52224,-0.74098 -24.02261,2.57609 -4.5806,1.44701 -8.92296,2.85909 -9.64968,3.13796 -3.19054,1.22433 -0.84994,-1.95245 4.42869,-6.01084 12.65994,-9.73338 25.05507,-14.03829 40.25,-13.97907 19.44514,0.0758 35.31722,7.50078 45.03066,21.06543 l 3.88745,5.42876 -8.68601,6.71889 -8.686,6.7189 -5.53565,-1.72289 c -19.28601,-6.00248 -32.62769,-1.94095 -39.80705,12.11823 -4.49532,8.80309 -5.17849,15.81822 -2.21201,22.71399 1.22529,2.84828 2.85349,5.69796 3.61821,6.33262 2.25635,1.8726 1.66179,3.60579 -3.49236,10.18051 -14.49836,18.49437 -33.40391,52.50445 -41.11724,73.9677 l -3.5,9.73917 -5.5,-0.0707 c -3.025,-0.0389 -8.60756,-0.73694 -12.4057,-1.55123 z m 104.4057,-151.29972 c 0,-2.87621 -3.84746,-5.0567 -8.92251,-5.0567 -5.10225,0 -4.75681,0.62727 2.41455,4.38454 5.97525,3.13058 6.50796,3.18561 6.50796,0.67216 z m 56.51981,-18.80279 c -1.86944,-9.96495 -10.49014,-23.27256 -22.26005,-34.36238 -20.1741,-19.00842 -36.71269,-27.08154 -61.36802,-29.95612 -10.3511,-1.20685 -38.57148,-0.81089 -42.14174,0.59128 -0.9625,0.37801 -1.75,0.24254 -1.75,-0.30103 0,-1.67695 16.81333,-8.3159 28.59711,-11.29194 34.60996,-8.74085 73.71058,-5.29443 102.90289,9.07012 12.72105,6.25959 20.80206,12.31399 23.415,17.54281 3.39487,6.79356 5.29294,16.26794 5.44294,27.16888 l 0.14206,10.32426 -10,4.33172 c -5.5,2.38244 -12.76564,5.73131 -16.14587,7.44193 l -6.14587,3.11022 -0.68845,-3.66975 z m 40.8123,-19.33583 c 0.35778,-2.97995 0.67331,-9.01808 0.70119,-13.41808 l 0.0507,-8 6.95259,7.33802 c 3.82393,4.03592 7.85853,8.61029 8.96579,10.16529 l 2.01319,2.82727 -8.25778,2.73136 c -4.54177,1.50226 -8.89191,2.96601 -9.66697,3.25279 -1.15072,0.42579 -1.28988,-0.47237 -0.75869,-4.89665 z"
         id="path3133"
         inkscape:connector-curvature="0" />
      <path
         style="fill:#e14615"
         d="m 249.99585,655.59064 c -3.80182,-3.08738 -6.46829,-5.76146 -5.92547,-5.94239 0.54281,-0.18094 3.99546,1.03515 7.67256,2.70243 4.54789,2.06211 6.68073,3.58779 6.67032,4.77146 -0.0379,4.30802 -1.56981,4.0293 -8.41741,-1.5315 z m -3.97298,-16.85044 c -13.48554,-2.93337 -19.78679,-7.89837 -29.99579,-23.63482 -5.59583,-8.62559 -10.01272,-16.7432 -9.11017,-16.7432 0.29094,0 2.3729,1.33573 4.62659,2.9683 7.68661,5.56815 18.63573,8.98366 32.17445,10.03664 16.50149,1.2834 16.53174,1.27328 5.71062,-1.90974 -13.21599,-3.88746 -20.65902,-7.0524 -29.40537,-12.50376 -12.43374,-7.7496 -20.04123,-18.81496 -23.24472,-33.81021 -1.76422,-8.25819 -1.39103,-33.49059 0.72518,-49.03123 1.21254,-8.90444 2.91525,-11.80337 2.93678,-5 0.007,2.0625 0.63027,6.07259 1.38609,8.91132 3.72055,13.97365 11.44534,24.03458 23.94222,31.18287 8.59255,4.91499 12.45234,5.1732 5.46469,0.36557 -16.85308,-11.59523 -26.8873,-32.72776 -25.46704,-53.63481 1.28312,-18.88838 6.7786,-30.97735 23.89988,-52.57495 6.18095,-7.79695 14.86312,-17.23296 15.37996,-16.71533 0.11826,0.11843 -2.22283,5.16533 -5.20242,11.21533 -5.9933,12.16929 -8.41525,20.26632 -8.41525,28.13381 0,5.38043 1.89972,15.36907 2.92175,15.36244 0.31804,-0.002 1.41315,-2.0339 2.43359,-4.51519 2.567,-6.24192 11.68712,-20.56439 16.85187,-26.46462 2.36103,-2.69725 6.82107,-6.86634 9.91118,-9.26464 19.64579,-15.24749 48.87282,-16.37546 71.88161,-2.77417 6.96648,4.11813 14.82388,10.4881 13.99414,11.34501 -0.27823,0.28733 -3.42823,-0.21081 -7,-1.10698 -4.72188,-1.18473 -11.13346,-1.63198 -23.49414,-1.63886 -19.16982,-0.0107 -23.88116,1.09763 -34.5,8.11576 -18.5754,12.27671 -29,31.45302 -29,53.34619 0,10.97063 4.3386,23.95427 10.53898,31.53882 2.27707,2.7854 2.39078,2.81749 2.42506,0.68439 0.0198,-1.23093 1.40333,-6.5067 3.07456,-11.72394 6.20103,-19.35834 20.09649,-34.36759 40.31342,-43.54477 l 6.13518,-2.78497 -4.4936,-1.21539 c -5.80092,-1.56898 -13.52224,-0.74098 -24.02261,2.57609 -4.5806,1.44701 -8.92296,2.85909 -9.64968,3.13796 -3.19054,1.22433 -0.84994,-1.95245 4.42869,-6.01084 12.65994,-9.73338 25.05507,-14.03829 40.25,-13.97907 14.85762,0.0579 25.03258,3.33748 35.75946,11.52593 4.93383,3.76628 12.24054,12.39176 12.24054,14.4498 0,0.50864 -3.7125,3.8407 -8.25,7.40457 l -8.25,6.47978 -5.5,-1.69118 c -19.31135,-5.93799 -32.65737,-1.85895 -39.78056,12.15842 -5.51025,10.84332 -5.37161,19.03157 0.46791,27.63658 2.98614,4.40033 3.59342,2.93786 -7.61999,18.35053 -14.22994,19.55885 -25.98113,41.11125 -35.15071,64.46854 l -4.71094,12 -5.35286,0.19008 c -2.94407,0.10454 -8.46042,-0.48589 -12.25855,-1.31206 z m 104.4057,-151.32132 c 0,-2.87621 -3.84746,-5.0567 -8.92251,-5.0567 -5.10225,0 -4.75681,0.62727 2.41455,4.38454 5.97525,3.13058 6.50796,3.18561 6.50796,0.67216 z m 56.51896,-18.80733 c -1.86857,-9.96036 -10.49143,-23.27004 -22.2592,-34.35784 -20.1741,-19.00842 -36.71269,-27.08154 -61.36802,-29.95612 -10.3511,-1.20685 -38.57148,-0.81089 -42.14174,0.59128 -0.9625,0.37801 -1.75,0.24254 -1.75,-0.30103 0,-1.67695 16.81333,-8.3159 28.59711,-11.29194 34.60996,-8.74085 73.71058,-5.29443 102.90289,9.07012 12.68273,6.24074 20.8035,12.31687 23.3965,17.50576 3.19288,6.38933 5.10536,15.1848 5.76876,26.53055 l 0.6163,10.54015 -6.89078,2.8789 c -3.78993,1.5834 -11.2318,5.03361 -16.5375,7.66714 l -9.64672,4.78824 -0.6876,-3.66521 z m 40.81706,-19.36427 c 0.35563,-2.96181 0.6694,-8.9851 0.69728,-13.3851 l 0.0507,-8 6.95259,7.33802 c 3.82393,4.03592 7.84921,8.5972 8.94506,10.13618 l 1.99247,2.79816 -8.23705,2.67367 c -4.53038,1.47051 -8.86943,2.93252 -9.64234,3.24891 -1.14871,0.47022 -1.28723,-0.40797 -0.75869,-4.80984 z"
         id="path3131"
         inkscape:connector-curvature="0" />
    </g>
  </g>
</svg>
